{
  "accessors": [
    {
      "bufferView": 2,
      "componentType": 5126,
      "count": 243,
      "max": [
        3.6857519149780273,
        1.4229769706726074,
        -0.70285701751708984
      ],
      "min": [
        -3.6857519149780273,
        -5.9485268592834473,
        -1.4266500473022461
      ],
      "type": "VEC3"
    },
    {
      "bufferView": 2,
      "byteOffset": 2916,
      "componentType": 5126,
      "count": 243,
      "max": [
        0.9999547004699707,
        0.99997246265411377,
        -0
      ],
      "min": [
        -0.99999415874481201,
        -0.999969482421875,
        -1
      ],
      "type": "VEC3"
    },
    {
      "bufferView": 3,
      "componentType": 5126,
      "count": 243,
      "max": [
        0.99998247623443604,
        0.99999630451202393,
        0.750255286693573,
        -1
      ],
      "min": [
        -1,
        -0.99997168779373169,
        -0.75099056959152222,
        -1
      ],
      "type": "VEC4"
    },
    {
      "bufferView": 1,
      "componentType": 5126,
      "count": 243,
      "max": [
        0.34547099471092224,
        -0.044778000563383102
      ],
      "min": [
        0.014498000033199787,
        -0.87452900409698486
      ],
      "type": "VEC2"
    },
    {
      "bufferView": 0,
      "componentType": 5125,
      "count": 1008,
      "max": [
        242
      ],
      "min": [
        0
      ],
      "type": "SCALAR"
    },
    {
      "bufferView": 2,
      "byteOffset": 5832,
      "componentType": 5126,
      "count": 212,
      "max": [
        3.3296909332275391,
        7.5002498626708984,
        0.93292701244354248
      ],
      "min": [
        1.3945579528808594,
        6.3173651695251465,
        -0.26745399832725525
      ],
      "type": "VEC3"
    },
    {
      "bufferView": 2,
      "byteOffset": 8376,
      "componentType": 5126,
      "count": 212,
      "max": [
        1,
        0.99988949298858643,
        0.99999880790710449
      ],
      "min": [
        -1,
        -1,
        -0.99999880790710449
      ],
      "type": "VEC3"
    },
    {
      "bufferView": 3,
      "byteOffset": 3888,
      "componentType": 5126,
      "count": 212,
      "max": [
        0.9999733567237854,
        0.020345045253634453,
        1,
        1
      ],
      "min": [
        -0.99999886751174927,
        -0.020258994773030281,
        -1,
        -1
      ],
      "type": "VEC4"
    },
    {
      "bufferView": 1,
      "byteOffset": 1944,
      "componentType": 5126,
      "count": 212,
      "max": [
        0.97689902782440186,
        -0.66332697868347168
      ],
      "min": [
        0.57753998041152954,
        -0.86641299724578857
      ],
      "type": "VEC2"
    },
    {
      "bufferView": 0,
      "byteOffset": 4032,
      "componentType": 5125,
      "count": 624,
      "max": [
        211
      ],
      "min": [
        0
      ],
      "type": "SCALAR"
    },
    {
      "bufferView": 2,
      "byteOffset": 10920,
      "componentType": 5126,
      "count": 400,
      "max": [
        2.8052499294281006,
        7.4761319160461426,
        0.44115999341011047
      ],
      "min": [
        1.8495800495147705,
        6.3588628768920898,
        0.22925999760627747
      ],
      "type": "VEC3"
    },
    {
      "bufferView": 2,
      "byteOffset": 15720,
      "componentType": 5126,
      "count": 400,
      "max": [
        1,
        1,
        1
      ],
      "min": [
        -1,
        -3.5000000934815034e-05,
        -1
      ],
      "type": "VEC3"
    },
    {
      "bufferView": 3,
      "byteOffset": 7280,
      "componentType": 5126,
      "count": 400,
      "max": [
        1,
        1,
        0.80933469533920288,
        -1
      ],
      "min": [
        -1,
        -1,
        -0.65914982557296753,
        -1
      ],
      "type": "VEC4"
    },
    {
      "bufferView": 1,
      "byteOffset": 3640,
      "componentType": 5126,
      "count": 400,
      "max": [
        0.76767498254776001,
        -0.76346302032470703
      ],
      "min": [
        0.022461999207735062,
        -0.9620400071144104
      ],
      "type": "VEC2"
    },
    {
      "bufferView": 0,
      "byteOffset": 6528,
      "componentType": 5125,
      "count": 966,
      "max": [
        399
      ],
      "min": [
        0
      ],
      "type": "SCALAR"
    },
    {
      "bufferView": 2,
      "byteOffset": 20520,
      "componentType": 5126,
      "count": 217,
      "max": [
        -1.5145629644393921,
        7.5380368232727051,
        0.88307702541351318
      ],
      "min": [
        -3.0879991054534912,
        7.4299168586730957,
        -0.23741200566291809
      ],
      "type": "VEC3"
    },
    {
      "bufferView": 2,
      "byteOffset": 23124,
      "componentType": 5126,
      "count": 217,
      "max": [
        1,
        1,
        0.9999927282333374
      ],
      "min": [
        -1,
        0,
        -0.9999549388885498
      ],
      "type": "VEC3"
    },
    {
      "bufferView": 3,
      "byteOffset": 13680,
      "componentType": 5126,
      "count": 217,
      "max": [
        0.9999549388885498,
        1,
        1,
        -1
      ],
      "min": [
        -0.99999278783798218,
        -1,
        -0.94435608386993408,
        -1
      ],
      "type": "VEC4"
    },
    {
      "bufferView": 1,
      "byteOffset": 6840,
      "componentType": 5126,
      "count": 217,
      "max": [
        0.83384102582931519,
        -0.66686099767684937
      ],
      "min": [
        0.025697000324726105,
        -0.94501602649688721
      ],
      "type": "VEC2"
    },
    {
      "bufferView": 0,
      "byteOffset": 10392,
      "componentType": 5125,
      "count": 648,
      "max": [
        216
      ],
      "min": [
        0
      ],
      "type": "SCALAR"
    },
    {
      "bufferView": 2,
      "byteOffset": 25728,
      "componentType": 5126,
      "count": 398,
      "max": [
        4.0633349418640137,
        7.2549018859863281,
        -0.47773000597953796
      ],
      "min": [
        -4.0633349418640137,
        -6.7633051872253418,
        -1.1206890344619751
      ],
      "type": "VEC3"
    },
    {
      "bufferView": 2,
      "byteOffset": 30504,
      "componentType": 5126,
      "count": 398,
      "max": [
        0.99999964237213135,
        1,
        0.03708401694893837
      ],
      "min": [
        -0.9999995231628418,
        -1,
        -1
      ],
      "type": "VEC3"
    },
    {
      "bufferView": 3,
      "byteOffset": 17152,
      "componentType": 5126,
      "count": 398,
      "max": [
        1,
        1,
        0.99983477592468262,
        1
      ],
      "min": [
        -1,
        -1,
        -1,
        -1
      ],
      "type": "VEC4"
    },
    {
      "bufferView": 1,
      "byteOffset": 8576,
      "componentType": 5126,
      "count": 398,
      "max": [
        0.9891510009765625,
        -0
      ],
      "min": [
        0,
        -0.98977398872375488
      ],
      "type": "VEC2"
    },
    {
      "bufferView": 0,
      "byteOffset": 12984,
      "componentType": 5125,
      "count": 1494,
      "max": [
        397
      ],
      "min": [
        0
      ],
      "type": "SCALAR"
    },
    {
      "bufferView": 2,
      "byteOffset": 35280,
      "componentType": 5126,
      "count": 626,
      "max": [
        4.357752799987793,
        7.5601692199707031,
        1.5739419460296631
      ],
      "min": [
        -4.2678470611572266,
        -6.8893308639526367,
        -0.49424800276756287
      ],
      "type": "VEC3"
    },
    {
      "bufferView": 2,
      "byteOffset": 42792,
      "componentType": 5126,
      "count": 626,
      "max": [
        0.99999260902404785,
        0.99668663740158081,
        1
      ],
      "min": [
        -0.99999344348907471,
        -1,
        -1
      ],
      "type": "VEC3"
    },
    {
      "bufferView": 3,
      "byteOffset": 23520,
      "componentType": 5126,
      "count": 626,
      "max": [
        1,
        0.99999874830245972,
        1,
        -1
      ],
      "min": [
        -1,
        -0.65892356634140015,
        -1,
        -1
      ],
      "type": "VEC4"
    },
    {
      "bufferView": 1,
      "byteOffset": 11760,
      "componentType": 5126,
      "count": 626,
      "max": [
        1,
        -0
      ],
      "min": [
        0.0027530000079423189,
        -0.83197402954101562
      ],
      "type": "VEC2"
    },
    {
      "bufferView": 0,
      "byteOffset": 18960,
      "componentType": 5125,
      "count": 2613,
      "max": [
        625
      ],
      "min": [
        0
      ],
      "type": "SCALAR"
    },
    {
      "bufferView": 2,
      "byteOffset": 50304,
      "componentType": 5126,
      "count": 95,
      "max": [
        4.3548002243041992,
        7.5664558410644531,
        -0.47514501214027405
      ],
      "min": [
        -4.2836298942565918,
        -6.8776202201843262,
        -0.47514599561691284
      ],
      "type": "VEC3"
    },
    {
      "bufferView": 2,
      "byteOffset": 51444,
      "componentType": 5126,
      "count": 95,
      "max": [
        0,
        0,
        -1
      ],
      "min": [
        0,
        0,
        -1
      ],
      "type": "VEC3"
    },
    {
      "bufferView": 3,
      "byteOffset": 33536,
      "componentType": 5126,
      "count": 95,
      "max": [
        -1,
        0.00026157061802223325,
        0,
        -1
      ],
      "min": [
        -1,
        -0.0002522361755836755,
        0,
        -1
      ],
      "type": "VEC4"
    },
    {
      "bufferView": 1,
      "byteOffset": 16768,
      "componentType": 5126,
      "count": 95,
      "max": [
        0.54475700855255127,
        -0.63509702682495117
      ],
      "min": [
        0.40180900692939758,
        -0.87411600351333618
      ],
      "type": "VEC2"
    },
    {
      "bufferView": 0,
      "byteOffset": 29412,
      "componentType": 5125,
      "count": 432,
      "max": [
        94
      ],
      "min": [
        0
      ],
      "type": "SCALAR"
    },
    {
      "bufferView": 2,
      "byteOffset": 52584,
      "componentType": 5126,
      "count": 791,
      "max": [
        3.6401019096374512,
        7.5334539413452148,
        1.1661520004272461
      ],
      "min": [
        -3.5611879825592041,
        6.2159790992736816,
        -0.46947199106216431
      ],
      "type": "VEC3"
    },
    {
      "bufferView": 2,
      "byteOffset": 62076,
      "componentType": 5126,
      "count": 791,
      "max": [
        1,
        1,
        1
      ],
      "min": [
        -1,
        -5.299998156260699e-05,
        -1
      ],
      "type": "VEC3"
    },
    {
      "bufferView": 3,
      "byteOffset": 35056,
      "componentType": 5126,
      "count": 791,
      "max": [
        1,
        1,
        1,
        -1
      ],
      "min": [
        -1,
        -1,
        -0.999927818775177,
        -1
      ],
      "type": "VEC4"
    },
    {
      "bufferView": 1,
      "byteOffset": 17528,
      "componentType": 5126,
      "count": 791,
      "max": [
        0.98613101243972778,
        -0.74421399831771851
      ],
      "min": [
        0.01042299997061491,
        -0.96973502635955811
      ],
      "type": "VEC2"
    },
    {
      "bufferView": 0,
      "byteOffset": 31140,
      "componentType": 5125,
      "count": 2685,
      "max": [
        790
      ],
      "min": [
        0
      ],
      "type": "SCALAR"
    },
    {
      "bufferView": 2,
      "byteOffset": 71568,
      "componentType": 5126,
      "count": 336,
      "max": [
        4.3605499267578125,
        7.5614738464355469,
        -0.46485298871994019
      ],
      "min": [
        -4.2846531867980957,
        -6.9000310897827148,
        -1.287682056427002
      ],
      "type": "VEC3"
    },
    {
      "bufferView": 2,
      "byteOffset": 75600,
      "componentType": 5126,
      "count": 336,
      "max": [
        1,
        1,
        0.0045889988541603088
      ],
      "min": [
        -1,
        -1,
        -1
      ],
      "type": "VEC3"
    },
    {
      "bufferView": 3,
      "byteOffset": 47712,
      "componentType": 5126,
      "count": 336,
      "max": [
        0.0048134266398847103,
        0.10165325552225113,
        1,
        -1
      ],
      "min": [
        -1,
        -0.06431598961353302,
        -1,
        -1
      ],
      "type": "VEC4"
    },
    {
      "bufferView": 1,
      "byteOffset": 23856,
      "componentType": 5126,
      "count": 336,
      "max": [
        0.95584702491760254,
        -0
      ],
      "min": [
        0,
        -1
      ],
      "type": "VEC2"
    },
    {
      "bufferView": 0,
      "byteOffset": 41880,
      "componentType": 5125,
      "count": 1176,
      "max": [
        335
      ],
      "min": [
        0
      ],
      "type": "SCALAR"
    }
  ],
  "asset": {
    "extras": {
      "author": "Antonio Gomez (https://sketchfab.com/antonio-gomez)",
      "license": "CC-BY-NC-4.0 (http://creativecommons.org/licenses/by-nc/4.0/)",
      "source": "https://sketchfab.com/models/95c2cdb3812149c88daf1dc8431d1e05",
      "title": "iPod (Scroll Wheel)"
    },
    "generator": "Sketchfab-3.19.2",
    "version": "2.0"
  },
  "bufferViews": [
    {
      "buffer": 0,
      "byteLength": 46584,
      "byteOffset": 0,
      "name": "floatBufferViews",
      "target": 34963
    },
    {
      "buffer": 0,
      "byteLength": 26544,
      "byteOffset": 46584,
      "byteStride": 8,
      "name": "floatBufferViews",
      "target": 34962
    },
    {
      "buffer": 0,
      "byteLength": 79632,
      "byteOffset": 73128,
      "byteStride": 12,
      "name": "floatBufferViews",
      "target": 34962
    },
    {
      "buffer": 0,
      "byteLength": 53088,
      "byteOffset": 152760,
      "byteStride": 16,
      "name": "floatBufferViews",
      "target": 34962
    }
  ],
  "buffers": [
    {
      "byteLength": 205848,
      "uri": "scene.bin"
    }
  ],
  "images": [
    {
      "uri": "textures/Body_emissive.png"
    },
    {
      "uri": "textures/Body_metallicRoughness.png"
    },
    {
      "uri": "textures/Body_normal.png"
    },
    {
      "uri": "textures/Body_baseColor.png"
    },
    {
      "uri": "textures/TransparentPlastic_baseColor.png"
    },
    {
      "uri": "textures/TransparentPlastic_normal.png"
    }
  ],
  "materials": [
    {
      "doubleSided": false,
      "emissiveFactor": [
        0.87080792679999997,
        0.87080792679999997,
        0.87080792679999997
      ],
      "emissiveTexture": {
        "index": 0,
        "texCoord": 0
      },
      "name": "Body",
      "normalTexture": {
        "index": 2,
        "scale": 1,
        "texCoord": 0
      },
      "occlusionTexture": {
        "index": 1,
        "strength": 0.5078125,
        "texCoord": 0
      },
      "pbrMetallicRoughness": {
        "baseColorFactor": [
          1,
          1,
          1,
          1
        ],
        "baseColorTexture": {
          "index": 3,
          "texCoord": 0
        },
        "metallicFactor": 1,
        "metallicRoughnessTexture": {
          "index": 1,
          "texCoord": 0
        },
        "roughnessFactor": 1
      }
    },
    {
      "alphaMode": "BLEND",
      "doubleSided": false,
      "emissiveFactor": [
        0,
        0,
        0
      ],
      "name": "TransparentPlastic",
      "normalTexture": {
        "index": 5,
        "scale": 1,
        "texCoord": 0
      },
      "pbrMetallicRoughness": {
        "baseColorFactor": [
          1,
          1,
          1,
          1
        ],
        "baseColorTexture": {
          "index": 4,
          "texCoord": 0
        },
        "metallicFactor": 1,
        "roughnessFactor": 0.10999999999999999
      }
    }
  ],
  "meshes": [
    {
      "primitives": [
        {
          "attributes": {
            "NORMAL": 1,
            "POSITION": 0,
            "TANGENT": 2,
            "TEXCOORD_0": 3
          },
          "indices": 4,
          "material": 0,
          "mode": 4
        }
      ]
    },
    {
      "primitives": [
        {
          "attributes": {
            "NORMAL": 6,
            "POSITION": 5,
            "TANGENT": 7,
            "TEXCOORD_0": 8
          },
          "indices": 9,
          "material": 0,
          "mode": 4
        }
      ]
    },
    {
      "primitives": [
        {
          "attributes": {
            "NORMAL": 11,
            "POSITION": 10,
            "TANGENT": 12,
            "TEXCOORD_0": 13
          },
          "indices": 14,
          "material": 0,
          "mode": 4
        }
      ]
    },
    {
      "primitives": [
        {
          "attributes": {
            "NORMAL": 16,
            "POSITION": 15,
            "TANGENT": 17,
            "TEXCOORD_0": 18
          },
          "indices": 19,
          "material": 0,
          "mode": 4
        }
      ]
    },
    {
      "primitives": [
        {
          "attributes": {
            "NORMAL": 21,
            "POSITION": 20,
            "TANGENT": 22,
            "TEXCOORD_0": 23
          },
          "indices": 24,
          "material": 0,
          "mode": 4
        }
      ]
    },
    {
      "primitives": [
        {
          "attributes": {
            "NORMAL": 26,
            "POSITION": 25,
            "TANGENT": 27,
            "TEXCOORD_0": 28
          },
          "indices": 29,
          "material": 0,
          "mode": 4
        }
      ]
    },
    {
      "primitives": [
        {
          "attributes": {
            "NORMAL": 31,
            "POSITION": 30,
            "TANGENT": 32,
            "TEXCOORD_0": 33
          },
          "indices": 34,
          "material": 0,
          "mode": 4
        }
      ]
    },
    {
      "primitives": [
        {
          "attributes": {
            "NORMAL": 36,
            "POSITION": 35,
            "TANGENT": 37,
            "TEXCOORD_0": 38
          },
          "indices": 39,
          "material": 0,
          "mode": 4
        }
      ]
    },
    {
      "primitives": [
        {
          "attributes": {
            "NORMAL": 41,
            "POSITION": 40,
            "TANGENT": 42,
            "TEXCOORD_0": 43
          },
          "indices": 44,
          "material": 1,
          "mode": 4
        }
      ]
    }
  ],
  "nodes": [
    {
      "children": [
        1
      ],
      "name": "RootNode (gltf orientation matrix)",
      "rotation": [
        -0.70710678118654746,
        -0,
        -0,
        0.70710678118654757
      ]
    },
    {
      "children": [
        2
      ],
      "matrix": [
        0.47183698415756226,
        -0.88168579339981079,
        0,
        0,
        0.88168579339981079,
        0.47183698415756226,
        0,
        0,
        0,
        0,
        1,
        0,
        1.3154444694519043,
        -0.33334505558013916,
        0,
        1
      ],
      "name": "RootNode (model correction matrix)"
    },
    {
      "children": [
        3
      ],
      "name": "root"
    },
    {
      "children": [
        4
      ],
      "matrix": [
        1,
        0,
        0,
        0,
        0,
        2.2204460492503131e-16,
        1,
        0,
        0,
        -1,
        2.2204460492503131e-16,
        0,
        0,
        0,
        0,
        1
      ],
      "name": "Correction matrix"
    },
    {
      "children": [
        5
      ],
      "name": "GLTF_SceneRootNode"
    },
    {
      "children": [
        6,
        8,
        10,
        12,
        14,
        16,
        18,
        20,
        22
      ],
      "matrix": [
        10,
        0,
        0,
        0,
        0,
        10,
        0,
        0,
        0,
        0,
        10,
        0,
        0,
        0,
        0,
        1
      ],
      "name": "iPod_9"
    },
    {
      "children": [
        7
      ],
      "matrix": [
        1,
        0,
        0,
        0,
        0,
        1,
        0,
        0,
        0,
        0,
        1,
        0,
        0.0072739999741315842,
        -0.0031999999191612005,
        0.18500000238418579,
        1
      ],
      "name": "clickwheel_low_0"
    },
    {
      "mesh": 0,
      "name": ""
    },
    {
      "children": [
        9
      ],
      "matrix": [
        1,
        0,
        0,
        0,
        0,
        1,
        0,
        0,
        0,
        0,
        1,
        0,
        0.00024100000155158341,
        0.049731999635696411,
        -0.026598000898957253,
        1
      ],
      "name": "firewire_metal_low_1"
    },
    {
      "mesh": 1,
      "name": ""
    },
    {
      "children": [
        11
      ],
      "matrix": [
        1,
        0,
        0,
        0,
        0,
        1,
        0,
        0,
        0,
        0,
        1,
        0,
        0.0040219998918473721,
        0.0097230002284049988,
        -0.030378999188542366,
        1
      ],
      "name": "firewire_plug_low_2"
    },
    {
      "mesh": 2,
      "name": ""
    },
    {
      "children": [
        13
      ],
      "matrix": [
        1,
        0,
        0,
        0,
        0,
        1,
        0,
        0,
        0,
        0,
        1,
        0,
        -0.259319007396698,
        0.030969999730587006,
        -0.017286000773310661,
        1
      ],
      "name": "hold_switch_low_3"
    },
    {
      "mesh": 3,
      "name": ""
    },
    {
      "children": [
        15
      ],
      "matrix": [
        1,
        0,
        0,
        0,
        0,
        1,
        0,
        0,
        0,
        0,
        1,
        0,
        0,
        0,
        -0.024469999596476555,
        1
      ],
      "name": "inner_plastic_panel_low_4"
    },
    {
      "mesh": 4,
      "name": ""
    },
    {
      "children": [
        17
      ],
      "name": "metal_back_low_5"
    },
    {
      "mesh": 5,
      "name": ""
    },
    {
      "children": [
        19
      ],
      "matrix": [
        1,
        0,
        0,
        0,
        0,
        1,
        0,
        0,
        0,
        0,
        1,
        0,
        0,
        0,
        -0.020460000261664391,
        1
      ],
      "name": "separation_panel_low_6"
    },
    {
      "mesh": 6,
      "name": ""
    },
    {
      "children": [
        21
      ],
      "matrix": [
        1,
        0,
        0,
        0,
        0,
        1,
        0,
        0,
        0,
        0,
        1,
        0,
        0,
        0.026917999610304832,
        -0.024631999433040619,
        1
      ],
      "name": "top_io_low_7"
    },
    {
      "mesh": 7,
      "name": ""
    },
    {
      "children": [
        23
      ],
      "matrix": [
        1,
        0,
        0,
        0,
        0,
        1,
        0,
        0,
        0,
        0,
        1,
        0,
        0,
        0,
        -0.033330999314785004,
        1
      ],
      "name": "transparent_panel_low_8"
    },
    {
      "mesh": 8,
      "name": ""
    }
  ],
  "samplers": [
    {
      "magFilter": 9728,
      "minFilter": 9986,
      "wrapS": 10497,
      "wrapT": 10497
    }
  ],
  "scene": 0,
  "scenes": [
    {
      "name": "OSG_Scene",
      "nodes": [
        0
      ]
    }
  ],
  "textures": [
    {
      "sampler": 0,
      "source": 0
    },
    {
      "sampler": 0,
      "source": 1
    },
    {
      "sampler": 0,
      "source": 2
    },
    {
      "sampler": 0,
      "source": 3
    },
    {
      "sampler": 0,
      "source": 4
    },
    {
      "sampler": 0,
      "source": 5
    }
  ]
}

