{"accessors":{"accessor_0":{"bufferView":"bufferView_0","byteOffset":0,"byteStride":0,"componentType":5126,"count":30794,"min":[-7.342809200286865,-3.7213540077209473,-4.439475059509277],"max":[5.008007049560547,2.8198111057281494,4.520186901092529],"type":"VEC3"},"accessor_1":{"bufferView":"bufferView_0","byteOffset":369528,"byteStride":0,"componentType":5126,"count":30794,"min":[-0.9998999834060669,-0.9994999766349792,-0.9994000196456909],"max":[1,0.9979000091552734,0.9998000264167786],"type":"VEC3"},"accessor_2":{"bufferView":"bufferView_1","byteOffset":0,"byteStride":0,"componentType":5123,"count":46176,"min":[0],"max":[30793],"type":"SCALAR"}},"asset":{"generator":"obj2gltf","profile":{"api":"WebGL","version":"1.0"},"version":"1.0","premultipliedAlpha":true},"buffers":{"buffer":{"byteLength":831408,"uri":"data:application/octet-stream;base64,","type":"arraybuffer"}},"bufferViews":{"bufferView_0":{"buffer":"buffer","byteLength":739056,"byteOffset":0,"target":34962},"bufferView_1":{"buffer":"buffer","byteLength":92352,"byteOffset":739056,"target":34963}},"extensionsUsed":[],"images":{},"materials":{"None":{"technique":"technique0","values":{"ambient":[0,0,0,1],"diffuse":[0.5,0.5,0.5,1],"emission":[0,0,0,1],"specular":[0,0,0,1],"shininess":0,"transparency":1}}},"meshes":{"suz-Mesh":{"name":"suz-Mesh","primitives":[{"attributes":{"POSITION":"accessor_0","NORMAL":"accessor_1"},"indices":"accessor_2","material":"None","mode":4}]}},"nodes":{"suz":{"name":"suz","meshes":["suz-Mesh"],"children":[],"matrix":[1,0,0,0,0,1,0,0,0,0,1,0,0,0,0,1]}},"samplers":{},"scene":"scene","scenes":{"scene":{"nodes":["suz"]}},"textures":{},"animations":{},"cameras":{},"programs":{"program0":{"attributes":["a_position","a_normal"],"fragmentShader":"fragmentShader0","vertexShader":"vertexShader0"}},"shaders":{"vertexShader0":{"type":35633,"uri":"data:text/plain;base64,"},"fragmentShader0":{"type":35632,"uri":"data:text/plain;base64,"}},"skins":{},"techniques":{"technique0":{"attributes":{"a_position":"position","a_normal":"normal"},"parameters":{"modelViewMatrix":{"semantic":"MODELVIEW","type":35676},"projectionMatrix":{"semantic":"PROJECTION","type":35676},"normalMatrix":{"semantic":"MODELVIEWINVERSETRANSPOSE","type":35675},"ambient":{"type":35666},"diffuse":{"type":35666},"emission":{"type":35666},"specular":{"type":35666},"shininess":{"type":5126},"transparency":{"type":5126},"position":{"semantic":"POSITION","type":35665},"normal":{"semantic":"NORMAL","type":35665}},"program":"program0","states":{"enable":[2884,2929]},"uniforms":{"u_modelViewMatrix":"modelViewMatrix","u_projectionMatrix":"projectionMatrix","u_normalMatrix":"normalMatrix","u_ambient":"ambient","u_diffuse":"diffuse","u_emission":"emission","u_specular":"specular","u_shininess":"shininess","u_transparency":"transparency"}}}}
